<svg xmlns="http://www.w3.org/2000/svg" version="1.1" xmlns:xlink="http://www.w3.org/1999/xlink" xmlns:svgjs="http://svgjs.dev/svgjs" width="1000" height="230" viewBox="0 0 1000 230"><g transform="matrix(1,0,0,1,0.16994382022460286,0.16859050481137672)"><svg viewBox="0 0 356 82" data-background-color="#4d7e3e" preserveAspectRatio="xMidYMid meet" height="230" width="1000" xmlns="http://www.w3.org/2000/svg" xmlns:xlink="http://www.w3.org/1999/xlink"><g id="tight-bounds" transform="matrix(1,0,0,1,-0.06049999999996203,-0.06010617997623058)"><svg viewBox="0 0 356.12052 82.12021235995243" height="82.12021235995243" width="356.12052"><g><svg viewBox="0 0 356.12052 82.12021235995243" height="82.12021235995243" width="356.12052"><g><svg viewBox="0 0 356.12052 82.12021235995243" height="82.12021235995243" width="356.12052"><g><path d="M0 82.12v-82.12h356.121v82.12z" fill="#c9efc7" stroke="transparent" stroke-width="0" rx="0%" data-fill-palette-color="tertiary"></path><path d="M3.283 78.837v-75.554h349.554v75.554z" fill="#4d7e3e" stroke="transparent" stroke-width="0" rx="0%" data-fill-palette-color="quaternary"></path><path d="M9.85 72.27v-62.42h336.421v62.42z" fill="#c9efc7" stroke="transparent" stroke-width="0" data-fill-palette-color="tertiary"></path></g><g transform="matrix(1,0,0,1,19.69974,19.69974)"><svg viewBox="0 0 316.72104 42.720732359952436" height="42.720732359952436" width="316.72104"><g><svg viewBox="0 0 316.72104 22.34496437574316" height="22.34496437574316" width="316.72104"><g transform="matrix(1,0,0,1,0,0)"><svg width="316.72104" viewBox="3.700000047683716 -35 504.5699768066406 35.599998474121094" height="22.34496437574316" data-palette-color="#4d7e3e"><path d="M37.95 0L26.9 0 26.9-13.05 14.75-13.05 14.75 0 3.7 0 3.7-34.4 14.75-34.4 14.75-21.85 26.9-21.85 26.9-34.4 37.95-34.4 37.95 0ZM79.6-13.85Q79.6-6.8 75.15-3.1 70.7 0.6 62.5 0.6L62.5 0.6Q54.3 0.6 49.82-3.1 45.35-6.8 45.35-13.85L45.35-13.85 45.35-34.4 56.4-34.4 56.4-14Q56.4-11.1 57.95-9.38 59.5-7.65 62.45-7.65L62.45-7.65Q65.4-7.65 66.97-9.4 68.55-11.15 68.55-14L68.55-14 68.55-34.4 79.6-34.4 79.6-13.85ZM121.25 0L111.6 0 97.15-16.7 97.15 0 87 0 87-34.4 96.65-34.4 111.1-17.45 111.1-34.4 121.25-34.4 121.25 0ZM143.54-34.4Q161.59-34.4 161.59-17.2L161.59-17.2Q161.59 0 143.54 0L143.54 0 128.64 0 128.64-34.4 143.54-34.4ZM139.69-26.15L139.69-8.25 143.34-8.25Q150.29-8.25 150.29-15.7L150.29-15.7 150.29-18.7Q150.29-26.15 143.34-26.15L143.34-26.15 139.69-26.15ZM181.99-35Q188.59-35 192.84-32.33 197.09-29.65 197.19-24.4L197.19-24.4 197.19-23.8 186.84-23.8 186.84-24Q186.84-25.5 185.74-26.5 184.64-27.5 182.39-27.5L182.39-27.5Q180.19-27.5 179.02-26.85 177.84-26.2 177.84-25.25L177.84-25.25Q177.84-23.9 179.44-23.25 181.04-22.6 184.59-21.9L184.59-21.9Q188.74-21.05 191.42-20.13 194.09-19.2 196.09-17.1 198.09-15 198.14-11.4L198.14-11.4Q198.14-5.3 194.02-2.35 189.89 0.6 182.99 0.6L182.99 0.6Q174.94 0.6 170.47-2.1 165.99-4.8 165.99-11.65L165.99-11.65 176.44-11.65Q176.44-9.05 177.79-8.18 179.14-7.3 181.99-7.3L181.99-7.3Q184.09-7.3 185.47-7.75 186.84-8.2 186.84-9.6L186.84-9.6Q186.84-10.85 185.32-11.48 183.79-12.1 180.34-12.8L180.34-12.8Q176.14-13.7 173.39-14.68 170.64-15.65 168.59-17.9 166.54-20.15 166.54-24L166.54-24Q166.54-29.65 170.92-32.33 175.29-35 181.99-35L181.99-35ZM222.94-34.4Q226.14-34.4 228.64-32.93 231.14-31.45 232.54-28.88 233.94-26.3 233.94-23.1L233.94-23.1 233.94-22.45Q233.94-19.25 232.54-16.65 231.14-14.05 228.64-12.58 226.14-11.1 222.94-11.1L222.94-11.1 214.69-11.1 214.69 0 203.64 0 203.64-34.4 222.94-34.4ZM214.69-26.25L214.69-19.15 219.24-19.15Q220.99-19.15 221.86-20.05 222.74-20.95 222.74-22.5L222.74-22.5 222.74-22.9Q222.74-24.5 221.86-25.38 220.99-26.25 219.24-26.25L219.24-26.25 214.69-26.25ZM256.84-35Q265.74-35 270.59-30.45 275.44-25.9 275.44-17.2L275.44-17.2Q275.44-8.5 270.59-3.95 265.74 0.6 256.84 0.6L256.84 0.6Q247.94 0.6 243.11-3.93 238.29-8.45 238.29-17.2L238.29-17.2Q238.29-25.95 243.11-30.48 247.94-35 256.84-35L256.84-35ZM256.84-26.75Q253.29-26.75 251.44-24.6 249.59-22.45 249.59-18.8L249.59-18.8 249.59-15.6Q249.59-11.95 251.44-9.8 253.29-7.65 256.84-7.65L256.84-7.65Q260.39-7.65 262.26-9.8 264.14-11.95 264.14-15.6L264.14-15.6 264.14-18.8Q264.14-22.45 262.26-24.6 260.39-26.75 256.84-26.75L256.84-26.75ZM314.03-23.85Q314.03-20.7 312.33-18.15 310.63-15.6 307.38-14.4L307.38-14.4 315.03 0 302.63 0 296.53-12.55 292.43-12.55 292.43 0 281.38 0 281.38-34.4 302.43-34.4Q306.13-34.4 308.76-32.98 311.38-31.55 312.71-29.13 314.03-26.7 314.03-23.85L314.03-23.85ZM302.78-23.4Q302.78-24.75 301.88-25.65 300.98-26.55 299.68-26.55L299.68-26.55 292.43-26.55 292.43-20.2 299.68-20.2Q300.98-20.2 301.88-21.13 302.78-22.05 302.78-23.4L302.78-23.4ZM350.88-25.6L339.63-25.6 339.63 0 328.58 0 328.58-25.6 317.28-25.6 317.28-34.4 350.88-34.4 350.88-25.6ZM389.73-35Q394.83-35 398.58-33.75 402.33-32.5 404.33-30.35 406.33-28.2 406.33-25.6L406.33-25.6 406.33-24.35 397.48-24.35Q397.48-25.9 395.65-26.93 393.83-27.95 390.38-27.95L390.38-27.95Q387.18-27.95 385.5-26.73 383.83-25.5 383.83-23.75L383.83-23.75Q383.83-22.2 384.85-21.4 385.88-20.6 387.38-20.6L387.38-20.6 392.58-20.6 392.58-14.45 386.28-14.45Q384.73-14.45 383.75-13.53 382.78-12.6 382.78-10.85L382.78-10.85Q382.78-8.8 384.5-7.63 386.23-6.45 389.98-6.45L389.98-6.45Q397.48-6.45 397.48-10.9L397.48-10.9 397.48-20.6 413.28-20.6 413.28-14.45 406.43-14.45 406.43-11.1Q406.43-5.5 402.45-2.45 398.48 0.6 390.03 0.6L390.03 0.6Q381.33 0.6 376.98-2.2 372.63-5 372.63-9.6L372.63-9.6Q372.63-12.6 374.2-14.78 375.78-16.95 378.63-17.85L378.63-17.85 378.63-18.05Q376.48-18.85 375.05-20.8 373.63-22.75 373.63-25.15L373.63-25.15Q373.63-27.85 375.45-30.1 377.28-32.35 380.93-33.68 384.58-35 389.73-35L389.73-35ZM450.07-35Q457.72-35 462.17-31.18 466.62-27.35 466.62-20.25L466.62-20.25 456.07-20.25Q456.07-23.25 454.5-25 452.92-26.75 450.02-26.75L450.02-26.75Q446.67-26.75 445.1-24.65 443.52-22.55 443.52-18.8L443.52-18.8 443.52-15.6Q443.52-11.9 445.1-9.78 446.67-7.65 449.92-7.65L449.92-7.65Q453.12-7.65 454.77-9.3 456.42-10.95 456.42-13.95L456.42-13.95 466.62-13.95Q466.62-6.9 462.3-3.15 457.97 0.6 450.07 0.6L450.07 0.6Q441.27 0.6 436.75-3.9 432.22-8.4 432.22-17.2L432.22-17.2Q432.22-26 436.75-30.5 441.27-35 450.07-35L450.07-35ZM489.67-35Q498.57-35 503.42-30.45 508.27-25.9 508.27-17.2L508.27-17.2Q508.27-8.5 503.42-3.95 498.57 0.6 489.67 0.6L489.67 0.6Q480.77 0.6 475.94-3.93 471.12-8.45 471.12-17.2L471.12-17.2Q471.12-25.95 475.94-30.48 480.77-35 489.67-35L489.67-35ZM489.67-26.75Q486.12-26.75 484.27-24.6 482.42-22.45 482.42-18.8L482.42-18.8 482.42-15.6Q482.42-11.95 484.27-9.8 486.12-7.65 489.67-7.65L489.67-7.65Q493.22-7.65 495.09-9.8 496.97-11.95 496.97-15.6L496.97-15.6 496.97-18.8Q496.97-22.45 495.09-24.6 493.22-26.75 489.67-26.75L489.67-26.75Z" opacity="1" transform="matrix(1,0,0,1,0,0)" fill="#4d7e3e" class="undefined-text-0" data-fill-palette-color="quaternary" id="text-0"></path></svg></g></svg></g><g transform="matrix(1,0,0,1,0,28.911544375743162)"><svg viewBox="0 0 316.72104 13.809187984209274" height="13.809187984209274" width="316.72104"><g transform="matrix(1,0,0,1,0,0)"><svg width="316.72104" viewBox="4.349999904632568 -36.83000183105469 853.780029296875 37.230003356933594" height="13.809187984209274" data-palette-color="#4d7e3e"><path d="M17.03 0L4.35 0 4.35-35.83 15.78-35.83Q19.07-35.83 21.46-35.18 23.85-34.52 25.39-33.33 26.93-32.13 27.66-30.39 28.4-28.65 28.4-26.48L28.4-26.48Q28.4-25.15 27.99-23.93 27.58-22.7 26.74-21.65 25.9-20.6 24.64-19.78 23.38-18.95 21.68-18.43L21.68-18.43Q25.6-17.65 27.6-15.6 29.6-13.55 29.6-10.2L29.6-10.2Q29.6-7.93 28.76-6.05 27.93-4.17 26.31-2.83 24.7-1.48 22.36-0.74 20.03 0 17.03 0L17.03 0ZM16.93-16.32L9.2-16.32 9.2-3.85 16.95-3.85Q19.03-3.85 20.51-4.33 22-4.8 22.96-5.66 23.93-6.53 24.38-7.71 24.83-8.9 24.83-10.33L24.83-10.33Q24.83-13.1 22.86-14.71 20.9-16.32 16.93-16.32L16.93-16.32ZM9.2-32L9.2-19.78 15.6-19.78Q17.65-19.78 19.15-20.23 20.65-20.68 21.64-21.48 22.63-22.28 23.1-23.41 23.58-24.55 23.58-25.9L23.58-25.9Q23.58-29.05 21.68-30.53 19.78-32 15.78-32L15.78-32 9.2-32ZM73.06 0L68.61 0 68.61-25.33 71.16-25.33Q71.89-25.33 72.16-25.05 72.44-24.78 72.54-24.1L72.54-24.1 72.84-20.15Q74.14-22.8 76.05-24.29 77.96-25.78 80.54-25.78L80.54-25.78Q81.59-25.78 82.44-25.54 83.29-25.3 84.01-24.88L84.01-24.88 83.44-21.55Q83.26-20.93 82.66-20.93L82.66-20.93Q82.31-20.93 81.59-21.16 80.86-21.4 79.56-21.4L79.56-21.4Q77.24-21.4 75.68-20.05 74.11-18.7 73.06-16.13L73.06-16.13 73.06 0ZM120.78-25.33L125.23-25.33 125.23-9.18Q125.23-6.3 126.55-4.73 127.88-3.15 130.55-3.15L130.55-3.15Q132.5-3.15 134.23-4.08 135.95-5 137.4-6.65L137.4-6.65 137.4-25.33 141.85-25.33 141.85 0 139.2 0Q138.25 0 138-0.93L138-0.93 137.65-3.65Q136-1.83 133.95-0.71 131.9 0.4 129.25 0.4L129.25 0.4Q127.18 0.4 125.59-0.29 124-0.98 122.93-2.23 121.85-3.48 121.31-5.25 120.78-7.03 120.78-9.18L120.78-9.18 120.78-25.33ZM181.94-36.83L186.42-36.83 186.42-15.15 187.57-15.15Q188.07-15.15 188.39-15.29 188.72-15.43 189.12-15.85L189.12-15.85 197.12-24.43Q197.49-24.83 197.87-25.08 198.24-25.33 198.87-25.33L198.87-25.33 202.92-25.33 193.59-15.4Q193.24-14.98 192.9-14.65 192.57-14.33 192.14-14.08L192.14-14.08Q192.59-13.78 192.95-13.39 193.32-13 193.64-12.5L193.64-12.5 203.54 0 199.54 0Q198.99 0 198.6-0.21 198.22-0.43 197.87-0.88L197.87-0.88 189.54-11.25Q189.17-11.78 188.79-11.94 188.42-12.1 187.67-12.1L187.67-12.1 186.42-12.1 186.42 0 181.94 0 181.94-36.83ZM256.1-22.78L255.1-21.15Q254.8-20.6 254.18-20.6L254.18-20.6Q253.8-20.6 253.33-20.88 252.85-21.15 252.17-21.49 251.48-21.83 250.53-22.11 249.58-22.4 248.28-22.4L248.28-22.4Q247.15-22.4 246.25-22.11 245.35-21.83 244.72-21.33 244.08-20.83 243.74-20.16 243.4-19.5 243.4-18.73L243.4-18.73Q243.4-17.75 243.97-17.1 244.53-16.45 245.45-15.98 246.38-15.5 247.55-15.14 248.73-14.78 249.97-14.36 251.2-13.95 252.38-13.45 253.55-12.95 254.48-12.2 255.4-11.45 255.97-10.36 256.53-9.28 256.53-7.75L256.53-7.75Q256.53-6 255.9-4.51 255.28-3.03 254.05-1.94 252.83-0.85 251.05-0.23 249.28 0.4 246.95 0.4L246.95 0.4Q244.3 0.4 242.15-0.46 240-1.33 238.5-2.68L238.5-2.68 239.55-4.38Q239.75-4.7 240.03-4.88 240.3-5.05 240.75-5.05L240.75-5.05Q241.2-5.05 241.7-4.7 242.2-4.35 242.92-3.93 243.63-3.5 244.64-3.15 245.65-2.8 247.18-2.8L247.18-2.8Q248.48-2.8 249.45-3.14 250.43-3.48 251.08-4.05 251.73-4.63 252.04-5.38 252.35-6.13 252.35-6.98L252.35-6.98Q252.35-8.03 251.79-8.71 251.23-9.4 250.3-9.89 249.38-10.38 248.19-10.74 247-11.1 245.77-11.5 244.53-11.9 243.34-12.41 242.15-12.93 241.23-13.7 240.3-14.48 239.74-15.61 239.18-16.75 239.18-18.38L239.18-18.38Q239.18-19.83 239.78-21.16 240.38-22.5 241.53-23.51 242.68-24.53 244.35-25.13 246.03-25.73 248.18-25.73L248.18-25.73Q250.68-25.73 252.67-24.94 254.65-24.15 256.1-22.78L256.1-22.78ZM347.43-25.73L347.43-25.73Q350.21-25.73 352.44-24.8 354.68-23.88 356.24-22.18 357.81-20.48 358.64-18.06 359.48-15.65 359.48-12.68L359.48-12.68Q359.48-9.68 358.64-7.28 357.81-4.88 356.24-3.18 354.68-1.48 352.44-0.56 350.21 0.35 347.43 0.35L347.43 0.35Q344.66 0.35 342.42-0.56 340.18-1.48 338.61-3.18 337.03-4.88 336.18-7.28 335.33-9.68 335.33-12.68L335.33-12.68Q335.33-15.65 336.18-18.06 337.03-20.48 338.61-22.18 340.18-23.88 342.42-24.8 344.66-25.73 347.43-25.73ZM347.43-3.13L347.43-3.13Q351.18-3.13 353.03-5.64 354.88-8.15 354.88-12.65L354.88-12.65Q354.88-17.18 353.03-19.7 351.18-22.23 347.43-22.23L347.43-22.23Q345.53-22.23 344.13-21.58 342.73-20.93 341.79-19.7 340.86-18.48 340.39-16.69 339.93-14.9 339.93-12.65L339.93-12.65Q339.93-10.4 340.39-8.63 340.86-6.85 341.79-5.64 342.73-4.42 344.13-3.78 345.53-3.13 347.43-3.13ZM416.04-22.43L414.87-20.83Q414.67-20.55 414.47-20.4 414.27-20.25 413.89-20.25L413.89-20.25Q413.52-20.25 413.08-20.56 412.64-20.88 411.97-21.25 411.29-21.63 410.33-21.94 409.37-22.25 407.97-22.25L407.97-22.25Q406.12-22.25 404.69-21.59 403.27-20.93 402.31-19.68 401.34-18.43 400.86-16.65 400.37-14.88 400.37-12.68L400.37-12.68Q400.37-10.38 400.89-8.59 401.42-6.8 402.37-5.59 403.32-4.38 404.68-3.74 406.04-3.1 407.74-3.1L407.74-3.1Q409.37-3.1 410.42-3.49 411.47-3.88 412.17-4.35 412.87-4.83 413.32-5.21 413.77-5.6 414.22-5.6L414.22-5.6Q414.79-5.6 415.07-5.18L415.07-5.18 416.32-3.55Q414.67-1.53 412.19-0.59 409.72 0.35 406.97 0.35L406.97 0.35Q404.59 0.35 402.56-0.53 400.52-1.4 399.02-3.06 397.52-4.73 396.66-7.15 395.79-9.58 395.79-12.68L395.79-12.68Q395.79-15.5 396.58-17.9 397.37-20.3 398.88-22.04 400.39-23.78 402.62-24.75 404.84-25.73 407.72-25.73L407.72-25.73Q410.37-25.73 412.42-24.86 414.47-24 416.04-22.43L416.04-22.43ZM458.01 0L453.56 0 453.56-36.83 458.01-36.83 458.01-21.93Q459.63-23.65 461.61-24.69 463.58-25.73 466.16-25.73L466.16-25.73Q468.23-25.73 469.82-25.04 471.41-24.35 472.47-23.09 473.53-21.83 474.08-20.05 474.63-18.28 474.63-16.13L474.63-16.13 474.63 0 470.18 0 470.18-16.13Q470.18-19 468.87-20.59 467.56-22.18 464.86-22.18L464.86-22.18Q462.88-22.18 461.17-21.23 459.46-20.28 458.01-18.65L458.01-18.65 458.01 0ZM574.83-16.2L574.83 0 572.86 0Q572.21 0 571.81-0.2 571.41-0.4 571.28-1.05L571.28-1.05 570.78-3.4Q569.78-2.5 568.83-1.79 567.88-1.07 566.83-0.59 565.78-0.1 564.6 0.15 563.41 0.4 561.96 0.4L561.96 0.4Q560.48 0.4 559.2-0.01 557.91-0.43 556.96-1.25 556.01-2.08 555.45-3.34 554.88-4.6 554.88-6.33L554.88-6.33Q554.88-7.83 555.71-9.21 556.53-10.6 558.37-11.68 560.21-12.75 563.18-13.44 566.16-14.13 570.46-14.23L570.46-14.23 570.46-16.2Q570.46-19.15 569.2-20.66 567.93-22.18 565.46-22.18L565.46-22.18Q563.83-22.18 562.72-21.76 561.61-21.35 560.8-20.84 559.98-20.33 559.4-19.91 558.81-19.5 558.23-19.5L558.23-19.5Q557.78-19.5 557.45-19.74 557.11-19.98 556.91-20.33L556.91-20.33 556.11-21.75Q558.21-23.78 560.63-24.78 563.06-25.78 566.01-25.78L566.01-25.78Q568.13-25.78 569.78-25.08 571.43-24.38 572.56-23.13 573.68-21.88 574.26-20.1 574.83-18.32 574.83-16.2L574.83-16.2ZM563.28-2.73L563.28-2.73Q564.46-2.73 565.43-2.96 566.41-3.2 567.27-3.64 568.13-4.08 568.92-4.7 569.71-5.33 570.46-6.13L570.46-6.13 570.46-11.4Q567.38-11.3 565.23-10.91 563.08-10.53 561.73-9.9 560.38-9.28 559.77-8.43 559.16-7.58 559.16-6.53L559.16-6.53Q559.16-5.53 559.48-4.8 559.81-4.08 560.36-3.61 560.91-3.15 561.66-2.94 562.41-2.73 563.28-2.73ZM618.65 0L614.2 0 614.2-25.33 616.75-25.33Q617.47-25.33 617.75-25.05 618.02-24.78 618.12-24.1L618.12-24.1 618.42-20.15Q619.72-22.8 621.63-24.29 623.55-25.78 626.12-25.78L626.12-25.78Q627.17-25.78 628.02-25.54 628.87-25.3 629.6-24.88L629.6-24.88 629.02-21.55Q628.85-20.93 628.25-20.93L628.25-20.93Q627.9-20.93 627.17-21.16 626.45-21.4 625.15-21.4L625.15-21.4Q622.82-21.4 621.26-20.05 619.7-18.7 618.65-16.13L618.65-16.13 618.65 0ZM669.99 0L667.11 0 667.11-36.83 671.59-36.83 671.59-21.68Q673.16-23.5 675.2-24.61 677.24-25.73 679.86-25.73L679.86-25.73Q682.06-25.73 683.84-24.9 685.61-24.08 686.86-22.44 688.11-20.8 688.79-18.39 689.46-15.98 689.46-12.83L689.46-12.83Q689.46-10.03 688.71-7.61 687.96-5.2 686.55-3.44 685.14-1.68 683.1-0.66 681.06 0.35 678.51 0.35L678.51 0.35Q676.06 0.35 674.35-0.6 672.64-1.55 671.36-3.25L671.36-3.25 671.14-0.95Q670.94 0 669.99 0L669.99 0ZM678.41-22.18L678.41-22.18Q676.24-22.18 674.6-21.18 672.96-20.18 671.59-18.35L671.59-18.35 671.59-6.1Q672.79-4.45 674.25-3.78 675.71-3.1 677.51-3.1L677.51-3.1Q681.06-3.1 682.96-5.63 684.86-8.15 684.86-12.83L684.86-12.83Q684.86-15.3 684.42-17.07 683.99-18.85 683.16-19.99 682.34-21.13 681.14-21.65 679.94-22.18 678.41-22.18ZM737.55-25.73L737.55-25.73Q739.82-25.73 741.75-24.96 743.67-24.2 745.07-22.76 746.47-21.33 747.26-19.21 748.05-17.1 748.05-14.4L748.05-14.4Q748.05-13.35 747.82-13 747.6-12.65 746.97-12.65L746.97-12.65 730.12-12.65Q730.17-10.25 730.77-8.47 731.37-6.7 732.42-5.51 733.47-4.33 734.92-3.74 736.37-3.15 738.17-3.15L738.17-3.15Q739.85-3.15 741.06-3.54 742.27-3.93 743.15-4.38 744.02-4.83 744.61-5.21 745.2-5.6 745.62-5.6L745.62-5.6Q746.17-5.6 746.47-5.18L746.47-5.18 747.72-3.55Q746.9-2.55 745.75-1.81 744.6-1.07 743.29-0.6 741.97-0.13 740.57 0.11 739.17 0.35 737.8 0.35L737.8 0.35Q735.17 0.35 732.96-0.54 730.75-1.43 729.14-3.14 727.52-4.85 726.62-7.38 725.72-9.9 725.72-13.18L725.72-13.18Q725.72-15.83 726.54-18.13 727.35-20.43 728.87-22.11 730.4-23.8 732.6-24.76 734.8-25.73 737.55-25.73ZM737.65-22.45L737.65-22.45Q734.42-22.45 732.57-20.59 730.72-18.73 730.27-15.43L730.27-15.43 744.05-15.43Q744.05-16.98 743.62-18.26 743.2-19.55 742.37-20.49 741.55-21.43 740.36-21.94 739.17-22.45 737.65-22.45ZM794.01 0.4L794.01 0.4Q791.01 0.4 789.4-1.28 787.79-2.95 787.79-6.1L787.79-6.1 787.79-21.6 784.74-21.6Q784.34-21.6 784.06-21.84 783.79-22.08 783.79-22.58L783.79-22.58 783.79-24.35 787.94-24.88 788.96-32.7Q789.01-33.08 789.29-33.31 789.56-33.55 789.99-33.55L789.99-33.55 792.24-33.55 792.24-24.83 799.49-24.83 799.49-21.6 792.24-21.6 792.24-6.4Q792.24-4.8 793.01-4.03 793.79-3.25 795.01-3.25L795.01-3.25Q795.71-3.25 796.22-3.44 796.74-3.63 797.11-3.85 797.49-4.08 797.75-4.26 798.01-4.45 798.21-4.45L798.21-4.45Q798.56-4.45 798.84-4.03L798.84-4.03 800.14-1.9Q798.99-0.83 797.36-0.21 795.74 0.4 794.01 0.4ZM847.63-25.73L847.63-25.73Q849.9-25.73 851.83-24.96 853.75-24.2 855.15-22.76 856.55-21.33 857.34-19.21 858.13-17.1 858.13-14.4L858.13-14.4Q858.13-13.35 857.9-13 857.68-12.65 857.05-12.65L857.05-12.65 840.2-12.65Q840.25-10.25 840.85-8.47 841.45-6.7 842.5-5.51 843.55-4.33 845-3.74 846.45-3.15 848.25-3.15L848.25-3.15Q849.93-3.15 851.14-3.54 852.35-3.93 853.23-4.38 854.1-4.83 854.69-5.21 855.28-5.6 855.7-5.6L855.7-5.6Q856.25-5.6 856.55-5.18L856.55-5.18 857.8-3.55Q856.98-2.55 855.83-1.81 854.68-1.07 853.36-0.6 852.05-0.13 850.65 0.11 849.25 0.35 847.88 0.35L847.88 0.35Q845.25 0.35 843.04-0.54 840.83-1.43 839.21-3.14 837.6-4.85 836.7-7.38 835.8-9.9 835.8-13.18L835.8-13.18Q835.8-15.83 836.61-18.13 837.43-20.43 838.95-22.11 840.48-23.8 842.68-24.76 844.88-25.73 847.63-25.73ZM847.73-22.45L847.73-22.45Q844.5-22.45 842.65-20.59 840.8-18.73 840.35-15.43L840.35-15.43 854.13-15.43Q854.13-16.98 853.7-18.26 853.28-19.55 852.45-20.49 851.63-21.43 850.44-21.94 849.25-22.45 847.73-22.45Z" opacity="1" transform="matrix(1,0,0,1,0,0)" fill="#4d7e3e" class="undefined-text-1" data-fill-palette-color="quaternary" id="text-1"></path></svg></g></svg></g></svg></g></svg></g><g></g></svg></g><defs></defs></svg><rect width="356.12052" height="82.12021235995243" fill="none" stroke="none" visibility="hidden"></rect></g></svg></g></svg>