<?xml version="1.0" standalone="no"?>
<!DOCTYPE svg PUBLIC "-//W3C//DTD SVG 20010904//EN"
 "http://www.w3.org/TR/2001/REC-SVG-20010904/DTD/svg10.dtd">
<svg version="1.0" xmlns="http://www.w3.org/2000/svg"
 width="975.000000pt" height="1280.000000pt" viewBox="0 0 975.000000 1280.000000"
 preserveAspectRatio="xMidYMid meet">
<metadata>
Created by potrace 1.15, written by Peter Selinger 2001-2017
</metadata>
<g transform="translate(0.000000,1280.000000) scale(0.100000,-0.100000)"
fill="#000000" stroke="none">
<path d="M5578 12325 c-116 -22 -254 -69 -361 -124 -357 -182 -540 -452 -577
-851 -33 -360 96 -868 337 -1330 l55 -105 -1118 -2766 -1117 -2766 -111 -43
c-138 -53 -417 -194 -554 -280 -333 -209 -590 -466 -714 -715 -76 -153 -108
-288 -108 -460 0 -181 45 -361 133 -536 66 -130 113 -197 212 -294 125 -125
257 -198 431 -242 88 -22 357 -24 459 -4 94 18 256 72 350 115 205 95 425 282
518 439 l45 79 7 -69 c30 -304 94 -560 190 -758 66 -136 119 -211 224 -315
106 -105 193 -158 331 -202 64 -19 96 -23 215 -23 172 0 258 21 421 100 545
265 862 910 755 1537 -42 244 -159 516 -313 725 -21 29 -38 57 -38 62 0 14
2150 5334 2160 5344 4 5 58 19 120 32 376 80 674 234 900 464 338 345 472 822
355 1260 -94 349 -345 599 -670 666 -102 21 -281 21 -400 0 -230 -41 -517
-172 -775 -355 -36 -25 -70 -49 -76 -52 -6 -4 -2 25 9 65 26 97 27 281 3 396
-56 264 -184 507 -365 691 -154 156 -302 245 -506 302 -95 26 -320 33 -427 13z"/>
</g>
</svg>
