<svg id="visual" viewBox="0 0 3840 2160" width="3840" height="2160" xmlns="http://www.w3.org/2000/svg" xmlns:xlink="http://www.w3.org/1999/xlink" version="1.1"><path d="M0 714L64 663.5C128 613 256 512 384 544.3C512 576.7 640 742.3 768 792.8C896 843.3 1024 778.7 1152 721.2C1280 663.7 1408 613.3 1536 681.7C1664 750 1792 937 1920 937C2048 937 2176 750 2304 624C2432 498 2560 433 2688 447.3C2816 461.7 2944 555.3 3072 667C3200 778.7 3328 908.3 3456 908.3C3584 908.3 3712 778.7 3776 713.8L3840 649L3840 0L3776 0C3712 0 3584 0 3456 0C3328 0 3200 0 3072 0C2944 0 2816 0 2688 0C2560 0 2432 0 2304 0C2176 0 2048 0 1920 0C1792 0 1664 0 1536 0C1408 0 1280 0 1152 0C1024 0 896 0 768 0C640 0 512 0 384 0C256 0 128 0 64 0L0 0Z" fill="#4d7e3e"></path><path d="M0 1146L64 1106.3C128 1066.7 256 987.3 384 1026.8C512 1066.3 640 1224.7 768 1242.7C896 1260.7 1024 1138.3 1152 1073.7C1280 1009 1408 1002 1536 1084.8C1664 1167.7 1792 1340.3 1920 1300.7C2048 1261 2176 1009 2304 897.3C2432 785.7 2560 814.3 2688 843.2C2816 872 2944 901 3072 980.3C3200 1059.7 3328 1189.3 3456 1185.7C3584 1182 3712 1045 3776 976.5L3840 908L3840 647L3776 711.8C3712 776.7 3584 906.3 3456 906.3C3328 906.3 3200 776.7 3072 665C2944 553.3 2816 459.7 2688 445.3C2560 431 2432 496 2304 622C2176 748 2048 935 1920 935C1792 935 1664 748 1536 679.7C1408 611.3 1280 661.7 1152 719.2C1024 776.7 896 841.3 768 790.8C640 740.3 512 574.7 384 542.3C256 510 128 611 64 661.5L0 712Z" fill="#75a26a"></path><path d="M0 1923L64 1865.5C128 1808 256 1693 384 1700.3C512 1707.7 640 1837.3 768 1840.8C896 1844.3 1024 1721.7 1152 1671.2C1280 1620.7 1408 1642.3 1536 1700C1664 1757.7 1792 1851.3 1920 1829.8C2048 1808.3 2176 1671.7 2304 1668C2432 1664.3 2560 1793.7 2688 1797.2C2816 1800.7 2944 1678.3 3072 1646C3200 1613.7 3328 1671.3 3456 1703.8C3584 1736.3 3712 1743.7 3776 1747.3L3840 1751L3840 906L3776 974.5C3712 1043 3584 1180 3456 1183.7C3328 1187.3 3200 1057.7 3072 978.3C2944 899 2816 870 2688 841.2C2560 812.3 2432 783.7 2304 895.3C2176 1007 2048 1259 1920 1298.7C1792 1338.3 1664 1165.7 1536 1082.8C1408 1000 1280 1007 1152 1071.7C1024 1136.3 896 1258.7 768 1240.7C640 1222.7 512 1064.3 384 1024.8C256 985.3 128 1064.7 64 1104.3L0 1144Z" fill="#9ec898"></path><path d="M0 2161L64 2161C128 2161 256 2161 384 2161C512 2161 640 2161 768 2161C896 2161 1024 2161 1152 2161C1280 2161 1408 2161 1536 2161C1664 2161 1792 2161 1920 2161C2048 2161 2176 2161 2304 2161C2432 2161 2560 2161 2688 2161C2816 2161 2944 2161 3072 2161C3200 2161 3328 2161 3456 2161C3584 2161 3712 2161 3776 2161L3840 2161L3840 1749L3776 1745.3C3712 1741.7 3584 1734.3 3456 1701.8C3328 1669.3 3200 1611.7 3072 1644C2944 1676.3 2816 1798.7 2688 1795.2C2560 1791.7 2432 1662.3 2304 1666C2176 1669.7 2048 1806.3 1920 1827.8C1792 1849.3 1664 1755.7 1536 1698C1408 1640.3 1280 1618.7 1152 1669.2C1024 1719.7 896 1842.3 768 1838.8C640 1835.3 512 1705.7 384 1698.3C256 1691 128 1806 64 1863.5L0 1921Z" fill="#c9efc7"></path></svg>