<svg id="visual" viewBox="0 0 3840 2160" width="3840" height="2160" xmlns="http://www.w3.org/2000/svg" xmlns:xlink="http://www.w3.org/1999/xlink" version="1.1"><rect x="0" y="0" width="3840" height="2160" fill="#4D7E3E"></rect><path d="M0 221L91.5 279C183 337 366 453 548.8 505C731.7 557 914.3 545 1097.2 528.3C1280 511.7 1463 490.3 1645.8 458.5C1828.7 426.7 2011.3 384.3 2194.2 405C2377 425.7 2560 509.3 2742.8 530.5C2925.7 551.7 3108.3 510.3 3291.2 460.7C3474 411 3657 353 3748.5 324L3840 295L3840 0L3748.5 0C3657 0 3474 0 3291.2 0C3108.3 0 2925.7 0 2742.8 0C2560 0 2377 0 2194.2 0C2011.3 0 1828.7 0 1645.8 0C1463 0 1280 0 1097.2 0C914.3 0 731.7 0 548.8 0C366 0 183 0 91.5 0L0 0Z" fill="#C9EFC7" stroke-linecap="round" stroke-linejoin="miter"></path></svg>